simulation
nRows=49
nColumns=15
endheader
time  TH_x TH_y TH_z SC_y  SC_z  SC_x  AC_y  AC_z  AC_x  GH_y  GH_z  GH_yy  EL_x  PS_y
0.390913  0.000000  0.000000  0.000000  -8.509155  -33.726324  -8.002141  44.282858  -3.819060  -14.707667  -12.520943  26.921212  9.839120  29.651991  0.000000
0.392900  0.000000  0.000000  0.000000  -8.500629  -33.842182  -8.070052  44.281357  -3.824335  -14.680826  -12.375974  26.821282  9.738035  29.799000  0.000000
0.394887  0.000000  0.000000  0.000000  -8.489994  -33.956949  -8.136872  44.280022  -3.829050  -14.654574  -12.230383  26.718890  9.634560  29.946708  0.000000
0.396971  0.000000  0.000000  0.000000  -8.476511  -34.076072  -8.205783  44.278914  -3.833363  -14.627590  -12.077066  26.608850  9.523721  30.102211  0.000000
0.399055  0.000000  0.000000  0.000000  -8.460618  -34.193860  -8.273511  44.278223  -3.837003  -14.601077  -11.923135  26.496097  9.410779  30.258163  0.000000
0.401139  0.000000  0.000000  0.000000  -8.442329  -34.310242  -8.340068  44.278067  -3.839955  -14.574932  -11.768613  26.380655  9.296021  30.414398  0.000000
0.403222  0.000000  0.000000  0.000000  -8.421701  -34.425146  -8.405472  44.278566  -3.842212  -14.549052  -11.613514  26.262567  9.179743  30.570749  0.000000
0.405306  0.000000  0.000000  0.000000  -8.398827  -34.538503  -8.469740  44.279829  -3.843777  -14.523329  -11.457840  26.141891  9.062240  30.727050  0.000000
0.407632  0.000000  0.000000  0.000000  -8.370804  -34.663102  -8.540156  44.282271  -3.844718  -14.494673  -11.283411  26.004243  8.930016  30.901234  0.000000
0.409957  0.000000  0.000000  0.000000  -8.340368  -34.785592  -8.609224  44.285925  -3.844834  -14.465928  -11.108223  25.863584  8.797031  31.074940  0.000000
0.412283  0.000000  0.000000  0.000000  -8.307789  -34.905881  -8.676985  44.290904  -3.844162  -14.436951  -10.932223  25.720053  8.663661  31.247964  0.000000
0.414233  0.000000  0.000000  0.000000  -8.279037  -35.004990  -8.732830  44.296167  -3.843026  -14.412373  -10.783955  25.597594  8.551781  31.392390  0.000000
0.416183  0.000000  0.000000  0.000000  -8.249187  -35.102440  -8.787814  44.302463  -3.841403  -14.387462  -10.635001  25.473323  8.440057  31.536101  0.000000
0.418134  0.000000  0.000000  0.000000  -8.218444  -35.198186  -8.841965  44.309820  -3.839329  -14.362150  -10.485288  25.347344  8.328654  31.679008  0.000000
0.420084  0.000000  0.000000  0.000000  -8.187019  -35.292185  -8.895311  44.318252  -3.836844  -14.336376  -10.334731  25.219763  8.217710  31.821027  0.000000
0.422034  0.000000  0.000000  0.000000  -8.155130  -35.384398  -8.947881  44.327756  -3.833992  -14.310090  -10.183232  25.090689  8.107340  31.962089  0.000000
0.424619  0.000000  0.000000  0.000000  -8.112519  -35.503807  -9.016411  44.341980  -3.829724  -14.274389  -9.980779  24.917496  7.962066  32.147492  0.000000
0.427204  0.000000  0.000000  0.000000  -8.069977  -35.619943  -9.083690  44.357991  -3.825003  -14.237644  -9.776184  24.742133  7.818060  32.331014  0.000000
0.429788  0.000000  0.000000  0.000000  -8.027984  -35.732745  -9.149778  44.375679  -3.819944  -14.199814  -9.569125  24.564855  7.675344  32.512595  0.000000
0.432373  0.000000  0.000000  0.000000  -7.986994  -35.842168  -9.214731  44.394899  -3.814663  -14.160889  -9.359252  24.385908  7.533845  32.692214  0.000000
0.434958  0.000000  0.000000  0.000000  -7.947417  -35.948180  -9.278598  44.415470  -3.809275  -14.120891  -9.146201  24.205528  7.393397  32.869891  0.000000
0.437978  0.000000  0.000000  0.000000  -7.903485  -36.067693  -9.351900  44.440907  -3.803008  -14.072882  -8.892703  23.993286  7.230237  33.075117  0.000000
0.440998  0.000000  0.000000  0.000000  -7.862455  -36.182522  -9.423833  44.467536  -3.796917  -14.023612  -8.633734  23.779712  7.067581  33.277946  0.000000
0.444018  0.000000  0.000000  0.000000  -7.824662  -36.292683  -9.494431  44.494999  -3.791143  -13.973237  -8.368747  23.565066  6.904792  33.478584  0.000000
0.447038  0.000000  0.000000  0.000000  -7.790341  -36.398211  -9.563719  44.522926  -3.785816  -13.921940  -8.097214  23.349576  6.741127  33.677286  0.000000
0.450058  0.000000  0.000000  0.000000  -7.759615  -36.499165  -9.631716  44.550956  -3.781040  -13.869923  -7.818617  23.133409  6.575752  33.874364  0.000000
0.453078  0.000000  0.000000  0.000000  -7.732499  -36.595600  -9.698413  44.578742  -3.776896  -13.817413  -7.532543  22.916727  6.407818  34.070119  0.000000
0.456099  0.000000  0.000000  0.000000  -7.708902  -36.687589  -9.763793  44.605968  -3.773437  -13.764637  -7.238614  22.699628  6.236441  34.264887  0.000000
0.459119  0.000000  0.000000  0.000000  -7.688637  -36.775215  -9.827825  44.632360  -3.770691  -13.711824  -6.936519  22.482169  6.060744  34.459009  0.000000
0.464119  0.000000  0.000000  0.000000  -7.661500  -36.910949  -9.930712  44.673541  -3.767688  -13.624995  -6.417775  22.121425  5.757798  34.779973  0.000000
0.469118  0.000000  0.000000  0.000000  -7.641150  -37.035337  -10.029524  44.711115  -3.766477  -13.539567  -5.875296  21.759654  5.437309  35.101435  0.000000
0.474118  0.000000  0.000000  0.000000  -7.625872  -37.148730  -10.123976  44.744667  -3.766810  -13.456329  -5.308627  21.396685  5.096368  35.424543  0.000000
0.479118  0.000000  0.000000  0.000000  -7.613900  -37.251452  -10.213757  44.774068  -3.768347  -13.375950  -4.717550  21.032306  4.732635  35.750216  0.000000
0.485650  0.000000  0.000000  0.000000  -7.600732  -37.370004  -10.323517  44.806455  -3.771566  -13.276061  -3.908573  20.553894  4.220652  36.180507  0.000000
0.492182  0.000000  0.000000  0.000000  -7.587571  -37.471313  -10.424113  44.832693  -3.775371  -13.182795  -3.058259  20.072698  3.665164  36.617004  0.000000
0.498714  0.000000  0.000000  0.000000  -7.572407  -37.555796  -10.514974  44.853890  -3.779025  -13.096653  -2.167342  19.589067  3.066202  37.059809  0.000000
0.505246  0.000000  0.000000  0.000000  -7.554544  -37.623789  -10.595732  44.871237  -3.782036  -13.017786  -1.236832  19.103919  2.425622  37.508448  0.000000
0.511778  0.000000  0.000000  0.000000  -7.534464  -37.675606  -10.666253  44.885743  -3.784198  -12.946114  -0.267923  18.618696  1.746461  37.962148  0.000000
0.520949  0.000000  0.000000  0.000000  -7.505110  -37.721807  -10.748166  44.902450  -3.785958  -12.857328  1.154561  17.940817  0.734522  38.606267  0.000000
0.530121  0.000000  0.000000  0.000000  -7.478064  -37.738206  -10.810570  44.915602  -3.786742  -12.782079  2.645177  17.271770  -0.337057  39.257201  0.000000
0.539292  0.000000  0.000000  0.000000  -7.457092  -37.726515  -10.854305  44.925023  -3.787419  -12.720140  4.197996  16.616817  -1.459927  39.914052  0.000000
0.548464  0.000000  0.000000  0.000000  -7.444390  -37.688782  -10.880328  44.929991  -3.788746  -12.671464  5.805943  15.980446  -2.627576  40.576638  0.000000
0.557635  0.000000  0.000000  0.000000  -7.440122  -37.627227  -10.889474  44.929847  -3.791072  -12.636157  7.460725  15.366058  -3.834807  41.245111  0.000000
0.568475  0.000000  0.000000  0.000000  -7.443924  -37.526735  -10.879383  44.922925  -3.794930  -12.611745  9.463032  14.671462  -5.304757  42.042642  0.000000
0.579315  0.000000  0.000000  0.000000  -7.454384  -37.399310  -10.847532  44.909363  -3.799438  -12.605808  11.496617  14.013839  -6.808534  42.847165  0.000000
0.590154  0.000000  0.000000  0.000000  -7.468884  -37.247827  -10.794940  44.890633  -3.803877  -12.617458  13.536400  13.395421  -8.325818  43.656231  0.000000
0.600994  0.000000  0.000000  0.000000  -7.486299  -37.074790  -10.722865  44.868485  -3.807715  -12.645255  15.551332  12.818058  -9.827944  44.466265  0.000000
0.611834  0.000000  0.000000  0.000000  -7.506942  -36.882517  -10.632813  44.844427  -3.810761  -12.687481  17.504204  12.283303  -11.278467  45.273107  0.000000
0.623769  0.000000  0.000000  0.000000  -7.534501  -36.651349  -10.514850  44.816825  -3.813295  -12.748690  19.531519  11.745112  -12.765302  46.152752  0.000000
